<?xml version="1.0" encoding="utf-8"?>
<!-- Generator: Adobe Illustrator 18.1.0, SVG Export Plug-In . SVG Version: 6.00 Build 0)  -->
<svg version="1.1" id="facebook-square" xmlns="http://www.w3.org/2000/svg" xmlns:xlink="http://www.w3.org/1999/xlink" x="0px"
	 y="0px" viewBox="210.1 333.4 175 175" enable-background="new 210.1 333.4 175 175" xml:space="preserve">
<path fill="#E5E4E1" d="M356,333.4H239.3c-16,0-29.2,13.1-29.2,29.2v116.7c0,16.1,13.1,29.2,29.2,29.2H356c16,0,29.2-13.1,29.2-29.2
	V362.6C385.1,346.6,372,333.4,356,333.4L356,333.4z M358.9,420.9h-28.5v76.6h-32.8v-76.6h-15.8v-25h15.8v-16.3
	c0-22.1,9.5-35.3,35.5-35.3h30v27.1h-24.5c-7.3,0-8.2,3.8-8.2,10.9l0,13.6h32.8L358.9,420.9L358.9,420.9L358.9,420.9z"/>
</svg>
